<?xml version="1.0" encoding="UTF-8"?>
<svg width="50px" height="50px" viewBox="0 0 24 24" version="1.1" xmlns="http://www.w3.org/2000/svg">
    <g stroke="none" stroke-width="1" fill="none" fill-rule="evenodd">
        <path d="M12,17 C14.2091,17 16,15.2091 16,13 C16,10.7909 14.2091,9 12,9 C9.79086,9 8,10.7909 8,13 C8,15.2091 9.79086,17 12,17 Z M12,15 C10.8954,15 10,14.1046 10,13 C10,11.8954 10.8954,11 12,11 C13.1046,11 14,11.8954 14,13 C14,14.1046 13.1046,15 12,15 Z M20,20 L4,20 C2.89543,20 2,19.1046 2,18 L2,8 C2,6.89543 2.89543,6 4,6 L7,6 L8.27143,4 C8.46565,3.66121 8.81934,3.5 9.2,3.5 L14.8,3.5 C15.1807,3.5 15.5344,3.66121 15.7286,4 L17,6 L20,6 C21.1046,6 22,6.89543 22,8 L22,18 C22,19.1046 21.1046,20 20,20 Z" fill="#3498db"></path>
    </g>
</svg> 